<svg xmlns="http://www.w3.org/2000/svg" xmlns:xlink="http://www.w3.org/1999/xlink" width="280" zoomAndPan="magnify" viewBox="0 0 210 91.5" height="122" preserveAspectRatio="xMidYMid meet" version="1.0"><defs><clipPath id="ae1c58575e"><path d="M 16.429688 29.445312 L 193.402344 29.445312 L 193.402344 87.851562 L 16.429688 87.851562 Z M 16.429688 29.445312 " clip-rule="nonzero"/></clipPath><clipPath id="0cf02c7ed6"><path d="M 125.523438 32.8125 L 188.472656 52.261719 C 191.273438 53.128906 193.183594 55.71875 193.183594 58.648438 C 193.183594 61.578125 191.273438 64.167969 188.472656 65.035156 L 125.523438 84.484375 C 112.058594 88.644531 97.652344 88.644531 84.1875 84.484375 L 21.238281 65.035156 C 18.4375 64.167969 16.527344 61.578125 16.527344 58.648438 C 16.527344 55.71875 18.4375 53.128906 21.238281 52.261719 L 84.1875 32.8125 C 97.652344 28.652344 112.058594 28.652344 125.523438 32.8125 Z M 125.523438 32.8125 " clip-rule="nonzero"/></clipPath><clipPath id="f253012f65"><path d="M 0.429688 0.445312 L 177.199219 0.445312 L 177.199219 58.851562 L 0.429688 58.851562 Z M 0.429688 0.445312 " clip-rule="nonzero"/></clipPath><clipPath id="3d2545af21"><path d="M 109.523438 3.8125 L 172.472656 23.261719 C 175.273438 24.128906 177.183594 26.71875 177.183594 29.648438 C 177.183594 32.578125 175.273438 35.167969 172.472656 36.035156 L 109.523438 55.484375 C 96.058594 59.644531 81.652344 59.644531 68.1875 55.484375 L 5.238281 36.035156 C 2.4375 35.167969 0.527344 32.578125 0.527344 29.648438 C 0.527344 26.71875 2.4375 24.128906 5.238281 23.261719 L 68.1875 3.8125 C 81.652344 -0.347656 96.058594 -0.347656 109.523438 3.8125 Z M 109.523438 3.8125 " clip-rule="nonzero"/></clipPath><clipPath id="3a9ab22da1"><rect x="0" width="178" y="0" height="59"/></clipPath><clipPath id="59995cc966"><path d="M 16.429688 22.492188 L 193.402344 22.492188 L 193.402344 80.894531 L 16.429688 80.894531 Z M 16.429688 22.492188 " clip-rule="nonzero"/></clipPath><clipPath id="7912180bbf"><path d="M 125.523438 25.855469 L 188.472656 45.308594 C 191.273438 46.171875 193.183594 48.761719 193.183594 51.695312 C 193.183594 54.625 191.273438 57.214844 188.472656 58.082031 L 125.523438 77.53125 C 112.058594 81.691406 97.652344 81.691406 84.1875 77.53125 L 21.238281 58.082031 C 18.4375 57.214844 16.527344 54.625 16.527344 51.695312 C 16.527344 48.761719 18.4375 46.171875 21.238281 45.308594 L 84.1875 25.855469 C 97.652344 21.695312 112.058594 21.695312 125.523438 25.855469 Z M 125.523438 25.855469 " clip-rule="nonzero"/></clipPath><clipPath id="00ac7c4af9"><path d="M 0.429688 0.492188 L 177.199219 0.492188 L 177.199219 58.894531 L 0.429688 58.894531 Z M 0.429688 0.492188 " clip-rule="nonzero"/></clipPath><clipPath id="4a42032dd0"><path d="M 109.523438 3.855469 L 172.472656 23.308594 C 175.273438 24.171875 177.183594 26.761719 177.183594 29.695312 C 177.183594 32.625 175.273438 35.214844 172.472656 36.082031 L 109.523438 55.53125 C 96.058594 59.691406 81.652344 59.691406 68.1875 55.53125 L 5.238281 36.082031 C 2.4375 35.214844 0.527344 32.625 0.527344 29.695312 C 0.527344 26.761719 2.4375 24.171875 5.238281 23.308594 L 68.1875 3.855469 C 81.652344 -0.304688 96.058594 -0.304688 109.523438 3.855469 Z M 109.523438 3.855469 " clip-rule="nonzero"/></clipPath><clipPath id="3f87bd1911"><rect x="0" width="178" y="0" height="59"/></clipPath><clipPath id="1b2f5667f4"><path d="M 16.429688 3.019531 L 193.402344 3.019531 L 193.402344 61.425781 L 16.429688 61.425781 Z M 16.429688 3.019531 " clip-rule="nonzero"/></clipPath><clipPath id="0b5fd43e3d"><path d="M 125.523438 6.386719 L 188.472656 25.835938 C 191.273438 26.703125 193.183594 29.292969 193.183594 32.222656 C 193.183594 35.152344 191.273438 37.742188 188.472656 38.609375 L 125.523438 58.058594 C 112.058594 62.21875 97.652344 62.21875 84.1875 58.058594 L 21.238281 38.609375 C 18.4375 37.742188 16.527344 35.152344 16.527344 32.222656 C 16.527344 29.292969 18.4375 26.703125 21.238281 25.835938 L 84.1875 6.386719 C 97.652344 2.226562 112.058594 2.226562 125.523438 6.386719 Z M 125.523438 6.386719 " clip-rule="nonzero"/></clipPath><clipPath id="45e0648187"><path d="M 0.429688 0.0195312 L 177.199219 0.0195312 L 177.199219 58.425781 L 0.429688 58.425781 Z M 0.429688 0.0195312 " clip-rule="nonzero"/></clipPath><clipPath id="607537a671"><path d="M 109.523438 3.386719 L 172.472656 22.835938 C 175.273438 23.703125 177.183594 26.292969 177.183594 29.222656 C 177.183594 32.152344 175.273438 34.742188 172.472656 35.609375 L 109.523438 55.058594 C 96.058594 59.21875 81.652344 59.21875 68.1875 55.058594 L 5.238281 35.609375 C 2.4375 34.742188 0.527344 32.152344 0.527344 29.222656 C 0.527344 26.292969 2.4375 23.703125 5.238281 22.835938 L 68.1875 3.386719 C 81.652344 -0.773438 96.058594 -0.773438 109.523438 3.386719 Z M 109.523438 3.386719 " clip-rule="nonzero"/></clipPath><clipPath id="6917513623"><rect x="0" width="178" y="0" height="59"/></clipPath></defs><g clip-path="url(#ae1c58575e)"><g clip-path="url(#0cf02c7ed6)"><g transform="matrix(1, 0, 0, 1, 16, 29)"><g clip-path="url(#3a9ab22da1)"><g clip-path="url(#f253012f65)"><g clip-path="url(#3d2545af21)"><rect x="-62.2" width="302.4" fill="#db4437" height="131.76" y="-49.13" fill-opacity="1"/></g></g></g></g></g></g><g clip-path="url(#59995cc966)"><g clip-path="url(#7912180bbf)"><g transform="matrix(1, 0, 0, 1, 16, 22)"><g clip-path="url(#3f87bd1911)"><g clip-path="url(#00ac7c4af9)"><g clip-path="url(#4a42032dd0)"><rect x="-62.2" width="302.4" fill="#ffffff" height="131.76" y="-42.13" fill-opacity="1"/></g></g></g></g></g></g><g clip-path="url(#1b2f5667f4)"><g clip-path="url(#0b5fd43e3d)"><g transform="matrix(1, 0, 0, 1, 16, 3)"><g clip-path="url(#6917513623)"><g clip-path="url(#45e0648187)"><g clip-path="url(#607537a671)"><rect x="-62.2" width="302.4" fill="#db4437" height="131.76" y="-23.13" fill-opacity="1"/></g></g></g></g></g></g></svg>