<svg xmlns="http://www.w3.org/2000/svg" xmlns:xlink="http://www.w3.org/1999/xlink" width="334" zoomAndPan="magnify" viewBox="0 0 250.5 50.249999" height="67" preserveAspectRatio="xMidYMid meet" version="1.0"><defs><g/><clipPath id="3c3100d276"><path d="M 9.453125 16.464844 L 97.113281 16.464844 L 97.113281 45.394531 L 9.453125 45.394531 Z M 9.453125 16.464844 " clip-rule="nonzero"/></clipPath><clipPath id="9e6f953a18"><path d="M 63.488281 18.132812 L 94.671875 27.769531 C 96.058594 28.195312 97.003906 29.480469 97.003906 30.929688 C 97.003906 32.382812 96.058594 33.667969 94.671875 34.09375 L 63.488281 43.730469 C 56.820312 45.789062 49.683594 45.789062 43.015625 43.730469 L 11.832031 34.09375 C 10.445312 33.667969 9.5 32.382812 9.5 30.929688 C 9.5 29.480469 10.445312 28.195312 11.832031 27.769531 L 43.015625 18.132812 C 49.683594 16.074219 56.820312 16.074219 63.488281 18.132812 Z M 63.488281 18.132812 " clip-rule="nonzero"/></clipPath><clipPath id="25f4952a88"><path d="M 0.453125 0.464844 L 88.113281 0.464844 L 88.113281 29.394531 L 0.453125 29.394531 Z M 0.453125 0.464844 " clip-rule="nonzero"/></clipPath><clipPath id="be7841de4b"><path d="M 54.488281 2.132812 L 85.671875 11.769531 C 87.058594 12.195312 88.003906 13.480469 88.003906 14.929688 C 88.003906 16.382812 87.058594 17.667969 85.671875 18.09375 L 54.488281 27.730469 C 47.820312 29.789062 40.683594 29.789062 34.015625 27.730469 L 2.832031 18.09375 C 1.445312 17.667969 0.5 16.382812 0.5 14.929688 C 0.5 13.480469 1.445312 12.195312 2.832031 11.769531 L 34.015625 2.132812 C 40.683594 0.0742188 47.820312 0.0742188 54.488281 2.132812 Z M 54.488281 2.132812 " clip-rule="nonzero"/></clipPath><clipPath id="f40faa0266"><rect x="0" width="89" y="0" height="30"/></clipPath><clipPath id="2be91188fc"><path d="M 9.453125 13.023438 L 97.113281 13.023438 L 97.113281 41.953125 L 9.453125 41.953125 Z M 9.453125 13.023438 " clip-rule="nonzero"/></clipPath><clipPath id="e4f1d1697e"><path d="M 63.488281 14.6875 L 94.671875 24.324219 C 96.058594 24.753906 97.003906 26.035156 97.003906 27.488281 C 97.003906 28.9375 96.058594 30.222656 94.671875 30.648438 L 63.488281 40.285156 C 56.820312 42.34375 49.683594 42.34375 43.015625 40.285156 L 11.832031 30.648438 C 10.445312 30.222656 9.5 28.9375 9.5 27.488281 C 9.5 26.035156 10.445312 24.753906 11.832031 24.324219 L 43.015625 14.6875 C 49.683594 12.628906 56.820312 12.628906 63.488281 14.6875 Z M 63.488281 14.6875 " clip-rule="nonzero"/></clipPath><clipPath id="1217c1ed02"><path d="M 0.453125 0.0234375 L 88.113281 0.0234375 L 88.113281 28.953125 L 0.453125 28.953125 Z M 0.453125 0.0234375 " clip-rule="nonzero"/></clipPath><clipPath id="980a1e0607"><path d="M 54.488281 1.6875 L 85.671875 11.324219 C 87.058594 11.753906 88.003906 13.035156 88.003906 14.488281 C 88.003906 15.9375 87.058594 17.222656 85.671875 17.648438 L 54.488281 27.285156 C 47.820312 29.34375 40.683594 29.34375 34.015625 27.285156 L 2.832031 17.648438 C 1.445312 17.222656 0.5 15.9375 0.5 14.488281 C 0.5 13.035156 1.445312 11.753906 2.832031 11.324219 L 34.015625 1.6875 C 40.683594 -0.371094 47.820312 -0.371094 54.488281 1.6875 Z M 54.488281 1.6875 " clip-rule="nonzero"/></clipPath><clipPath id="0c495077f2"><rect x="0" width="89" y="0" height="29"/></clipPath><clipPath id="4941bed69d"><path d="M 9.453125 3.378906 L 97.113281 3.378906 L 97.113281 32.308594 L 9.453125 32.308594 Z M 9.453125 3.378906 " clip-rule="nonzero"/></clipPath><clipPath id="5bb5aebb2b"><path d="M 63.488281 5.042969 L 94.671875 14.679688 C 96.058594 15.105469 97.003906 16.390625 97.003906 17.84375 C 97.003906 19.292969 96.058594 20.578125 94.671875 21.003906 L 63.488281 30.640625 C 56.820312 32.699219 49.683594 32.699219 43.015625 30.640625 L 11.832031 21.003906 C 10.445312 20.578125 9.5 19.292969 9.5 17.84375 C 9.5 16.390625 10.445312 15.105469 11.832031 14.679688 L 43.015625 5.042969 C 49.683594 2.984375 56.820312 2.984375 63.488281 5.042969 Z M 63.488281 5.042969 " clip-rule="nonzero"/></clipPath><clipPath id="ba7d9e6816"><path d="M 0.453125 0.378906 L 88.113281 0.378906 L 88.113281 29.308594 L 0.453125 29.308594 Z M 0.453125 0.378906 " clip-rule="nonzero"/></clipPath><clipPath id="9b36ccfb26"><path d="M 54.488281 2.042969 L 85.671875 11.679688 C 87.058594 12.105469 88.003906 13.390625 88.003906 14.84375 C 88.003906 16.292969 87.058594 17.578125 85.671875 18.003906 L 54.488281 27.640625 C 47.820312 29.699219 40.683594 29.699219 34.015625 27.640625 L 2.832031 18.003906 C 1.445312 17.578125 0.5 16.292969 0.5 14.84375 C 0.5 13.390625 1.445312 12.105469 2.832031 11.679688 L 34.015625 2.042969 C 40.683594 -0.015625 47.820312 -0.015625 54.488281 2.042969 Z M 54.488281 2.042969 " clip-rule="nonzero"/></clipPath><clipPath id="5378034247"><rect x="0" width="89" y="0" height="30"/></clipPath><clipPath id="5229cc552d"><rect x="0" width="132" y="0" height="37"/></clipPath></defs><g clip-path="url(#3c3100d276)"><g clip-path="url(#9e6f953a18)"><g transform="matrix(1, 0, 0, 1, 9, 16)"><g clip-path="url(#f40faa0266)"><g clip-path="url(#25f4952a88)"><g clip-path="url(#be7841de4b)"><rect x="-64.11" width="360.72" fill="#db4437" height="72.359998" y="-27.055" fill-opacity="1"/></g></g></g></g></g></g><g clip-path="url(#2be91188fc)"><g clip-path="url(#e4f1d1697e)"><g transform="matrix(1, 0, 0, 1, 9, 13)"><g clip-path="url(#0c495077f2)"><g clip-path="url(#1217c1ed02)"><g clip-path="url(#980a1e0607)"><rect x="-64.11" width="360.72" fill="#0a0a0a" height="72.359998" y="-24.055" fill-opacity="1"/></g></g></g></g></g></g><g clip-path="url(#4941bed69d)"><g clip-path="url(#5bb5aebb2b)"><g transform="matrix(1, 0, 0, 1, 9, 3)"><g clip-path="url(#5378034247)"><g clip-path="url(#ba7d9e6816)"><g clip-path="url(#9b36ccfb26)"><rect x="-64.11" width="360.72" fill="#db4437" height="72.359998" y="-14.055" fill-opacity="1"/></g></g></g></g></g></g><g transform="matrix(1, 0, 0, 1, 109, 6)"><g clip-path="url(#5229cc552d)"><g fill="#ffffff" fill-opacity="1"><g transform="translate(0.512576, 28.362755)"><g><path d="M 14.125 -9.890625 C 14.488281 -9.722656 14.851562 -9.394531 15.21875 -8.90625 C 15.9375 -7.945312 16.296875 -6.671875 16.296875 -5.078125 C 16.296875 -3.140625 15.457031 -1.707031 13.78125 -0.78125 C 12.925781 -0.332031 12.070312 -0.0703125 11.21875 0 L 1.625 0 L 1.625 -17.65625 L 9.8125 -17.65625 C 10.476562 -17.65625 11.191406 -17.515625 11.953125 -17.234375 C 13.453125 -16.648438 14.410156 -15.640625 14.828125 -14.203125 C 15.140625 -13.171875 15.113281 -12.140625 14.75 -11.109375 C 14.570312 -10.609375 14.363281 -10.203125 14.125 -9.890625 Z M 5.875 -14.375 L 5.875 -10.4375 L 9.640625 -10.4375 C 10.191406 -10.4375 10.664062 -10.625 11.0625 -11 C 11.4375 -11.382812 11.625 -11.847656 11.625 -12.390625 C 11.625 -12.953125 11.4375 -13.421875 11.0625 -13.796875 C 10.664062 -14.179688 10.191406 -14.375 9.640625 -14.375 Z M 12.984375 -5.21875 C 12.984375 -5.757812 12.796875 -6.226562 12.421875 -6.625 C 12.035156 -7.007812 11.570312 -7.203125 11.03125 -7.203125 L 5.875 -7.203125 L 5.875 -3.265625 L 11.03125 -3.265625 C 11.570312 -3.265625 12.035156 -3.453125 12.421875 -3.828125 C 12.796875 -4.210938 12.984375 -4.675781 12.984375 -5.21875 Z M 12.984375 -5.21875 "/></g></g></g><g fill="#ffffff" fill-opacity="1"><g transform="translate(17.625236, 28.362755)"><g><path d="M 14.296875 -6.390625 C 14.304688 -6.003906 14.304688 -5.773438 14.296875 -5.703125 L 4.078125 -5.734375 C 4.222656 -5.316406 4.484375 -4.914062 4.859375 -4.53125 C 5.566406 -3.863281 6.382812 -3.53125 7.3125 -3.53125 C 8.289062 -3.570312 9.101562 -3.914062 9.75 -4.5625 L 9.859375 -4.671875 L 13.390625 -3.5625 C 12.617188 -2.34375 11.804688 -1.472656 10.953125 -0.953125 C 9.992188 -0.335938 8.789062 -0.0195312 7.34375 0 C 5.414062 0.0195312 3.765625 -0.648438 2.390625 -2.015625 C 1.015625 -3.367188 0.316406 -5.015625 0.296875 -6.953125 C 0.273438 -8.878906 0.945312 -10.53125 2.3125 -11.90625 C 3.664062 -13.28125 5.3125 -13.976562 7.25 -14 C 9.175781 -14.007812 10.828125 -13.335938 12.203125 -11.984375 C 13.578125 -10.617188 14.273438 -8.96875 14.296875 -7.03125 Z M 7.28125 -10.4375 C 6.320312 -10.4375 5.507812 -10.097656 4.84375 -9.421875 C 4.5 -9.046875 4.253906 -8.664062 4.109375 -8.28125 L 10.484375 -8.28125 C 10.335938 -8.664062 10.085938 -9.054688 9.734375 -9.453125 C 9.035156 -10.109375 8.21875 -10.4375 7.28125 -10.4375 Z M 7.28125 -10.4375 "/></g></g></g><g fill="#ffffff" fill-opacity="1"><g transform="translate(31.260853, 28.362755)"><g><path d="M 10.890625 -14 L 10.890625 -10.1875 L 7.765625 -10.1875 L 7.765625 0 L 3.96875 0 L 3.96875 -10.1875 L 0.8125 -10.1875 L 0.8125 -14 L 3.96875 -14 L 3.96875 -18.890625 L 7.765625 -18.890625 L 7.765625 -14 Z M 10.890625 -14 "/></g></g></g><g fill="#ffffff" fill-opacity="1"><g transform="translate(42.180203, 28.362755)"><g><path d="M 10.875 -14.046875 L 14.671875 -14.046875 L 14.671875 0 L 10.875 0 L 10.875 -1.578125 C 10.09375 -0.554688 8.914062 -0.046875 7.34375 -0.046875 C 5.414062 -0.0351562 3.765625 -0.707031 2.390625 -2.0625 C 1.015625 -3.425781 0.316406 -5.078125 0.296875 -7.015625 C 0.273438 -8.929688 0.945312 -10.578125 2.3125 -11.953125 C 3.664062 -13.328125 5.3125 -14.023438 7.25 -14.046875 C 8.84375 -14.046875 10.050781 -13.53125 10.875 -12.5 Z M 9.734375 -4.625 C 10.398438 -5.289062 10.734375 -6.101562 10.734375 -7.0625 C 10.734375 -8.039062 10.390625 -8.859375 9.703125 -9.515625 C 9.015625 -10.203125 8.207031 -10.523438 7.28125 -10.484375 C 6.320312 -10.484375 5.507812 -10.148438 4.84375 -9.484375 C 4.164062 -8.816406 3.828125 -8 3.828125 -7.03125 C 3.828125 -6.09375 4.171875 -5.28125 4.859375 -4.59375 C 5.535156 -3.925781 6.351562 -3.59375 7.3125 -3.59375 C 8.289062 -3.625 9.097656 -3.96875 9.734375 -4.625 Z M 9.734375 -4.625 "/></g></g></g><g fill="#ffffff" fill-opacity="1"><g transform="translate(57.663083, 28.362755)"><g><path d="M 14.125 -9.890625 C 14.488281 -9.722656 14.851562 -9.394531 15.21875 -8.90625 C 15.9375 -7.945312 16.296875 -6.671875 16.296875 -5.078125 C 16.296875 -3.140625 15.457031 -1.707031 13.78125 -0.78125 C 12.925781 -0.332031 12.070312 -0.0703125 11.21875 0 L 1.625 0 L 1.625 -17.65625 L 9.8125 -17.65625 C 10.476562 -17.65625 11.191406 -17.515625 11.953125 -17.234375 C 13.453125 -16.648438 14.410156 -15.640625 14.828125 -14.203125 C 15.140625 -13.171875 15.113281 -12.140625 14.75 -11.109375 C 14.570312 -10.609375 14.363281 -10.203125 14.125 -9.890625 Z M 5.875 -14.375 L 5.875 -10.4375 L 9.640625 -10.4375 C 10.191406 -10.4375 10.664062 -10.625 11.0625 -11 C 11.4375 -11.382812 11.625 -11.847656 11.625 -12.390625 C 11.625 -12.953125 11.4375 -13.421875 11.0625 -13.796875 C 10.664062 -14.179688 10.191406 -14.375 9.640625 -14.375 Z M 12.984375 -5.21875 C 12.984375 -5.757812 12.796875 -6.226562 12.421875 -6.625 C 12.035156 -7.007812 11.570312 -7.203125 11.03125 -7.203125 L 5.875 -7.203125 L 5.875 -3.265625 L 11.03125 -3.265625 C 11.570312 -3.265625 12.035156 -3.453125 12.421875 -3.828125 C 12.796875 -4.210938 12.984375 -4.675781 12.984375 -5.21875 Z M 12.984375 -5.21875 "/></g></g></g><g fill="#ffffff" fill-opacity="1"><g transform="translate(74.775743, 28.362755)"><g><path d="M 7.25 -14 C 9.1875 -14.007812 10.835938 -13.335938 12.203125 -11.984375 C 13.578125 -10.609375 14.265625 -8.957031 14.265625 -7.03125 C 14.285156 -5.09375 13.613281 -3.445312 12.25 -2.09375 C 10.894531 -0.71875 9.257812 -0.0195312 7.34375 0 C 5.394531 0.0195312 3.734375 -0.648438 2.359375 -2.015625 C 0.984375 -3.367188 0.296875 -5.015625 0.296875 -6.953125 C 0.273438 -8.890625 0.945312 -10.539062 2.3125 -11.90625 C 3.664062 -13.28125 5.3125 -13.976562 7.25 -14 Z M 9.734375 -4.5625 C 10.398438 -5.226562 10.734375 -6.046875 10.734375 -7.015625 C 10.734375 -7.953125 10.390625 -8.765625 9.703125 -9.453125 C 9.015625 -10.109375 8.195312 -10.4375 7.25 -10.4375 C 6.3125 -10.4375 5.507812 -10.097656 4.84375 -9.421875 C 4.164062 -8.722656 3.828125 -7.910156 3.828125 -6.984375 C 3.828125 -6.035156 4.171875 -5.21875 4.859375 -4.53125 C 5.535156 -3.863281 6.351562 -3.53125 7.3125 -3.53125 C 8.289062 -3.570312 9.097656 -3.914062 9.734375 -4.5625 Z M 9.734375 -4.5625 "/></g></g></g><g fill="#ffffff" fill-opacity="1"><g transform="translate(89.335084, 28.362755)"><g><path d="M 10.875 -14.046875 L 14.671875 -14.046875 L 14.671875 0 L 10.875 0 L 10.875 -1.578125 C 10.09375 -0.554688 8.914062 -0.046875 7.34375 -0.046875 C 5.414062 -0.0351562 3.765625 -0.707031 2.390625 -2.0625 C 1.015625 -3.425781 0.316406 -5.078125 0.296875 -7.015625 C 0.273438 -8.929688 0.945312 -10.578125 2.3125 -11.953125 C 3.664062 -13.328125 5.3125 -14.023438 7.25 -14.046875 C 8.84375 -14.046875 10.050781 -13.53125 10.875 -12.5 Z M 9.734375 -4.625 C 10.398438 -5.289062 10.734375 -6.101562 10.734375 -7.0625 C 10.734375 -8.039062 10.390625 -8.859375 9.703125 -9.515625 C 9.015625 -10.203125 8.207031 -10.523438 7.28125 -10.484375 C 6.320312 -10.484375 5.507812 -10.148438 4.84375 -9.484375 C 4.164062 -8.816406 3.828125 -8 3.828125 -7.03125 C 3.828125 -6.09375 4.171875 -5.28125 4.859375 -4.59375 C 5.535156 -3.925781 6.351562 -3.59375 7.3125 -3.59375 C 8.289062 -3.625 9.097656 -3.96875 9.734375 -4.625 Z M 9.734375 -4.625 "/></g></g></g><g fill="#ffffff" fill-opacity="1"><g transform="translate(104.817969, 28.362755)"><g><path d="M 4.625 -11.90625 C 4.925781 -12.769531 5.441406 -13.375 6.171875 -13.71875 C 6.878906 -14.0625 7.9375 -14.234375 9.34375 -14.234375 L 9.34375 -10.359375 C 7.96875 -10.359375 6.816406 -9.882812 5.890625 -8.9375 C 5.046875 -8.101562 4.625 -7.1875 4.625 -6.1875 L 4.625 0 L 0.8125 0 L 0.8125 -14 L 4.625 -14 Z M 4.625 -11.90625 "/></g></g></g><g fill="#ffffff" fill-opacity="1"><g transform="translate(114.569458, 28.362755)"><g><path d="M 11.765625 0 L 11.765625 -1.609375 C 10.460938 -0.535156 8.988281 0 7.34375 0 C 5.414062 0.0195312 3.765625 -0.648438 2.390625 -2.015625 C 1.015625 -3.367188 0.316406 -5.015625 0.296875 -6.953125 C 0.273438 -8.878906 0.945312 -10.53125 2.3125 -11.90625 C 3.664062 -13.28125 5.3125 -13.976562 7.25 -14 C 8.9375 -14 10.429688 -13.460938 11.734375 -12.390625 L 11.734375 -18.96875 L 15.546875 -18.96875 L 15.5625 0 Z M 9.75 -4.5625 C 10.425781 -5.226562 10.765625 -6.046875 10.765625 -7.015625 C 10.722656 -7.992188 10.378906 -8.804688 9.734375 -9.453125 C 9.035156 -10.109375 8.21875 -10.4375 7.28125 -10.4375 C 6.320312 -10.4375 5.507812 -10.097656 4.84375 -9.421875 C 4.164062 -8.679688 3.835938 -7.867188 3.859375 -6.984375 C 3.859375 -6.023438 4.191406 -5.207031 4.859375 -4.53125 C 5.535156 -3.863281 6.351562 -3.53125 7.3125 -3.53125 C 8.289062 -3.570312 9.101562 -3.914062 9.75 -4.5625 Z M 9.75 -4.5625 "/></g></g></g></g></g></svg>